<?xml version="1.0" standalone="no"?>
<!DOCTYPE svg PUBLIC "-//W3C//DTD SVG 20010904//EN"
 "http://www.w3.org/TR/2001/REC-SVG-20010904/DTD/svg10.dtd">
<svg version="1.0" xmlns="http://www.w3.org/2000/svg"
 width="500.000000pt" height="500.000000pt" viewBox="0 0 500.000000 500.000000"
 preserveAspectRatio="xMidYMid meet">
<metadata>
Created by potrace 1.14, written by Peter Selinger 2001-2017
</metadata>
<g transform="translate(0.000000,500.000000) scale(0.100000,-0.100000)"
fill="#000000" stroke="none">
<path d="M379 4985 c-131 -36 -269 -146 -321 -255 -62 -131 -58 35 -58 -2230
0 -2006 1 -2068 19 -2133 51 -175 192 -310 369 -353 87 -21 4152 -20 4231 1
183 48 331 200 370 380 7 35 10 688 11 2110 0 1686 -3 2069 -14 2110 -51 192
-206 340 -390 374 -92 17 -4156 13 -4217 -4z"/>
</g>
</svg>
